name Run_40002_IK.mot
datacolumns 164
datarows 4
range 1.38 1.41
endheader
time	         pelvis_tilt	         pelvis_list	     pelvis_rotation	           pelvis_tx	           pelvis_ty	           pelvis_tz	       hip_flexion_r	     hip_adduction_r	      hip_rotation_r	        knee_angle_r	       ankle_angle_r	       hip_flexion_l	     hip_adduction_l	      hip_rotation_l	        knee_angle_l	       ankle_angle_l	    lumbar_extension	      lumbar_bending	     lumbar_rotation	          arm_flex_r	           arm_add_r	           arm_rot_r	        elbow_flex_r	           pro_sup_r	          arm_flex_l	           arm_add_l	           arm_rot_l	        elbow_flex_l	           pro_sup_l	    subtalar_angle_r	         mtp_angle_r	    subtalar_angle_l	         mtp_angle_l	        wrist_flex_r	         wrist_dev_r	        wrist_flex_l	         wrist_dev_l	             LASI_tx	             LASI_ty	             LASI_tz	             RASI_tx	             RASI_ty	             RASI_tz	             LPSI_tx	             LPSI_ty	             LPSI_tz	             RPSI_tx	             RPSI_ty	             RPSI_tz	             RTH1_tx	             RTH1_ty	             RTH1_tz	             RTH2_tx	             RTH2_ty	             RTH2_tz	             RTH3_tx	             RTH3_ty	             RTH3_tz	             LTH1_tx	             LTH1_ty	             LTH1_tz	             LTH2_tx	             LTH2_ty	             LTH2_tz	             LTH3_tx	             LTH3_ty	             LTH3_tz	             RTB1_tx	             RTB1_ty	             RTB1_tz	             RTB2_tx	             RTB2_ty	             RTB2_tz	             RTB3_tx	             RTB3_ty	             RTB3_tz	             LTB1_tx	             LTB1_ty	             LTB1_tz	             LTB2_tx	             LTB2_ty	             LTB2_tz	             LTB3_tx	             LTB3_ty	             LTB3_tz	             RCAL_tx	             RCAL_ty	             RCAL_tz	             RTOE_tx	             RTOE_ty	             RTOE_tz	             RMT5_tx	             RMT5_ty	             RMT5_tz	             LCAL_tx	             LCAL_ty	             LCAL_tz	             LTOE_tx	             LTOE_ty	             LTOE_tz	             LMT5_tx	             LMT5_ty	             LMT5_tz	             LACR_tx	             LACR_ty	             LACR_tz	             RACR_tx	             RACR_ty	             RACR_tz	             CLAV_tx	             CLAV_ty	             CLAV_tz	               C7_tx	               C7_ty	               C7_tz	             RUA1_tx	             RUA1_ty	             RUA1_tz	             RUA2_tx	             RUA2_ty	             RUA2_tz	             RUA3_tx	             RUA3_ty	             RUA3_tz	             RLEL_tx	             RLEL_ty	             RLEL_tz	             RMEL_tx	             RMEL_ty	             RMEL_tz	             LUA1_tx	             LUA1_ty	             LUA1_tz	             LUA2_tx	             LUA2_ty	             LUA2_tz	             LUA3_tx	             LUA3_ty	             LUA3_tz	             LLEL_tx	             LLEL_ty	             LLEL_tz	             LMEL_tx	             LMEL_ty	             LMEL_tz	      RFAsuperior_tx	      RFAsuperior_ty	      RFAsuperior_tz	        RFAradius_tx	        RFAradius_ty	        RFAradius_tz	          RFAulna_tx	          RFAulna_ty	          RFAulna_tz	      LFAsuperior_tx	      LFAsuperior_ty	      LFAsuperior_tz	        LFAradius_tx	        LFAradius_ty	        LFAradius_tz	          LFAulna_tx	          LFAulna_ty	          LFAulna_tz	
1.38	        -14.57503215	          3.10682431	          2.51597114	          0.97783912	          0.99395859	         -0.35245283	         50.03759631	         -4.90015062	          3.12009743	       -101.68661924	          7.62705740	          9.83902995	         10.92732492	          1.32082853	        -27.07606427	         12.66102687	          2.32509479	         -2.94799395	         -8.93172924	        -38.38077400	        -22.79131983	        -10.60740771	         95.47490725	        109.78285250	        -25.27143590	        -11.11421049	        -13.90946470	        119.53354478	         99.81036396	          0.00000000	          0.00000000	          0.00000000	          0.00000000	          0.00000000	          0.00000000	          0.00000000	          0.00000000	          0.99468513	          1.04608759	         -0.48643300	          0.99881209	          1.02946786	         -0.22201499	          0.84290169	          1.10256422	         -0.40487645	          0.84041380	          1.09613306	         -0.29134865	          0.93590827	          0.92244848	         -0.16898861	          0.96107116	          0.77842893	         -0.18961800	          1.08380450	          0.67042128	         -0.18948771	          0.91944937	          0.90157046	         -0.52031536	          0.82729346	          0.75878201	         -0.47164610	          0.86222302	          0.61987045	         -0.46095669	          1.05199089	          0.46956404	         -0.25156755	          0.97489830	          0.52244036	         -0.18214867	          0.87374553	          0.41245559	         -0.25039419	          0.85313466	          0.39174445	         -0.37931568	          0.72485958	          0.33512135	         -0.42105950	          0.71945857	          0.21940966	         -0.35274710	          0.69476879	          0.45479304	         -0.24071399	          0.80741083	          0.23977973	         -0.25871173	          0.76568599	          0.27048191	         -0.16400196	          0.53813229	          0.15688612	         -0.31786240	          0.75754886	          0.06710808	         -0.31003091	          0.69404987	          0.03995949	         -0.40095812	          0.99227817	          1.52010584	         -0.50873377	          0.98742930	          1.50719148	         -0.18295611	          1.05356255	          1.47207118	         -0.31090190	          0.93405673	          1.54057249	         -0.35217540	          0.85615257	          1.44018930	         -0.13261245	          0.88002705	          1.38134310	         -0.08670393	          0.78957013	          1.33537337	         -0.05057611	          0.73868105	          1.29393346	         -0.02175805	          0.73625796	          1.25906204	         -0.10475046	          0.89823313	          1.41879230	         -0.56477871	          0.92882550	          1.34174358	         -0.58609555	          0.85809920	          1.27515271	         -0.61082571	          0.84246295	          1.21050927	         -0.63137551	          0.82731769	          1.18711812	         -0.54378629	          0.80341715	          1.20404109	         -0.00954833	          0.93274512	          1.09714510	         -0.08344262	          0.88900980	          1.07051273	         -0.03756436	          0.91600441	          1.16774424	         -0.62361674	          1.08097107	          1.19411971	         -0.53323330	          1.08177982	          1.12870003	         -0.56224927	
1.39	        -14.58641063	          2.20799186	          1.90659705	          0.98016577	          1.00180792	         -0.35221484	         51.15914921	         -3.65317538	          2.95459407	        -97.12416866	          8.25991598	          5.93252487	          9.52916741	          1.42662436	        -23.60893602	          7.43557316	          2.90860134	         -1.65634678	         -9.42086715	        -40.22819031	        -22.94160442	        -11.42408327	         97.33234471	        109.20435485	        -25.37808220	        -10.94886898	        -13.56553529	        122.17453867	         99.12021243	          0.00000000	          0.00000000	          0.00000000	          0.00000000	          0.00000000	          0.00000000	          0.00000000	          0.00000000	          0.99820793	          1.05278543	         -0.48856405	          0.99947179	          1.03869399	         -0.22256886	          0.84642427	          1.10944003	         -0.40687394	          0.84180598	          1.10476291	         -0.29293989	          0.93840847	          0.93331720	         -0.16723585	          0.96643726	          0.78914207	         -0.18977994	          1.09136060	          0.68463655	         -0.19092570	          0.91986922	          0.90684793	         -0.51912784	          0.81721288	          0.76981920	         -0.47124764	          0.84385843	          0.62940747	         -0.46125488	          1.07136237	          0.47552981	         -0.25184734	          0.98976614	          0.52175520	         -0.18393332	          0.89752350	          0.40011287	         -0.24977407	          0.82465440	          0.40069051	         -0.38231527	          0.69537887	          0.34686271	         -0.42396750	          0.68930732	          0.22993362	         -0.35699218	          0.71710787	          0.42487964	         -0.24028426	          0.85241191	          0.22340850	         -0.25870101	          0.80757713	          0.24938826	         -0.16347740	          0.50912521	          0.17326480	         -0.32305979	          0.71951104	          0.06570505	         -0.31114075	          0.65481410	          0.04147686	         -0.40182797	          0.99397748	          1.52919117	         -0.50708883	          0.98325215	          1.51598973	         -0.18201786	          1.05156066	          1.48119947	         -0.30857343	          0.93291558	          1.54869450	         -0.35175456	          0.85025736	          1.45175269	         -0.13556829	          0.87230040	          1.39243391	         -0.08809290	          0.78034235	          1.34784692	         -0.05433957	          0.72773169	          1.30719342	         -0.02716423	          0.72726893	          1.27259676	         -0.11031646	          0.90155671	          1.42764516	         -0.56523394	          0.93371848	          1.35095304	         -0.58618825	          0.86464015	          1.28358803	         -0.61282728	          0.84913891	          1.21896040	         -0.63326255	          0.83274917	          1.19543378	         -0.54610149	          0.79231840	          1.21797810	         -0.01361798	          0.92436822	          1.11292082	         -0.08455372	          0.87993342	          1.08512051	         -0.04001052	          0.92386574	          1.18009623	         -0.62274067	          1.08456107	          1.21548447	         -0.52872721	          1.08922513	          1.14955825	         -0.55590241	
1.4	        -14.61595015	          1.22940512	          1.27573373	          0.98278331	          1.00970297	         -0.35183436	         51.91097861	         -2.39522956	          2.57082980	        -92.04070477	          8.72140922	          2.28867059	          8.03287337	          1.07576295	        -20.31794338	          1.49516496	          3.51059888	         -0.27165613	         -9.72772592	        -42.15275432	        -22.96422955	        -12.38554257	         99.14420702	        108.71916990	        -25.56573283	        -10.88900089	        -13.05111832	        124.70579913	         98.85780680	          0.00000000	          0.00000000	          0.00000000	          0.00000000	          0.00000000	          0.00000000	          0.00000000	          0.00000000	          1.00216361	          1.05948521	         -0.49066972	          1.00030957	          1.04815959	         -0.22267933	          0.85037989	          1.11631779	         -0.40884598	          0.84354236	          1.11370263	         -0.29434586	          0.94140109	          0.94432865	         -0.16543871	          0.97124173	          0.79971199	         -0.18950810	          1.09733435	          0.69783537	         -0.19228532	          0.92039285	          0.91232661	         -0.51815570	          0.80833577	          0.78165206	         -0.47091666	          0.82677880	          0.64011914	         -0.46189647	          1.08929884	          0.48110090	         -0.25228322	          1.00357102	          0.51970236	         -0.18538828	          0.92281146	          0.38749788	         -0.24952967	          0.79818605	          0.41128697	         -0.38613543	          0.66815413	          0.35982066	         -0.42723226	          0.66187697	          0.24160852	         -0.36203309	          0.74200575	          0.39392515	         -0.24108034	          0.89863090	          0.20835211	         -0.25902923	          0.85055245	          0.22931244	         -0.16376751	          0.48338893	          0.19125990	         -0.32826276	          0.68212461	          0.06495744	         -0.31234951	          0.61613931	          0.04400513	         -0.40269784	          0.99541899	          1.53832003	         -0.50528347	          0.97967575	          1.52461034	         -0.18117567	          1.04962448	          1.49021457	         -0.30639308	          0.93184834	          1.55687953	         -0.35115765	          0.84523937	          1.46333379	         -0.13815410	          0.86540048	          1.40340758	         -0.08962541	          0.77193038	          1.36037934	         -0.05834522	          0.71771762	          1.32034450	         -0.03281933	          0.71910802	          1.28594006	         -0.11623025	          0.90458763	          1.43686283	         -0.56563674	          0.93812974	          1.36050858	         -0.58640348	          0.87022656	          1.29273324	         -0.61479119	          0.85506816	          1.22794076	         -0.63549657	          0.83740166	          1.20431433	         -0.54869740	          0.78215326	          1.23168957	         -0.01795257	          0.91665787	          1.12836208	         -0.08593747	          0.87171793	          1.09941005	         -0.04261882	          0.93064257	          1.19265591	         -0.62221251	          1.08646933	          1.23633512	         -0.52436857	          1.09506138	          1.17015871	         -0.55006465	
1.41	        -14.72010892	          0.29816246	          0.67040163	          0.98537265	          1.01726635	         -0.35149836	         52.41918445	         -1.28369211	          2.01580314	        -86.52414567	          8.95109153	         -0.95702202	          6.63905926	          0.43249737	        -17.39675455	         -4.74701535	          4.14154300	          1.06696928	         -9.93264174	        -44.08523929	        -22.89443686	        -13.40058105	        100.89943232	        108.28994678	        -25.84648261	        -10.93404529	        -12.45691546	        127.15653132	         98.91317943	          0.00000000	          0.00000000	          0.00000000	          0.00000000	          0.00000000	          0.00000000	          0.00000000	          0.00000000	          1.00620274	          1.06595308	         -0.49263702	          1.00126023	          1.05731937	         -0.22228647	          0.85441899	          1.12296364	         -0.41067938	          0.84551540	          1.12233224	         -0.29576733	          0.94415731	          0.95488328	         -0.16394453	          0.97530877	          0.80969677	         -0.18896352	          1.10156607	          0.70963482	         -0.19359191	          0.92056565	          0.91795450	         -0.51761140	          0.80077595	          0.79372398	         -0.47100414	          0.81136670	          0.65142453	         -0.46289849	          1.10589030	          0.48605297	         -0.25283885	          1.01629293	          0.51617339	         -0.18659764	          0.95011745	          0.37513444	         -0.25020619	          0.77380971	          0.42295211	         -0.39011201	          0.64320081	          0.37371355	         -0.43060286	          0.63706565	          0.25406228	         -0.36735393	          0.76955036	          0.36240864	         -0.24328758	          0.94566994	          0.19475868	         -0.25960817	          0.89435889	          0.21038631	         -0.16483232	          0.46073027	          0.21058008	         -0.33365523	          0.64538432	          0.06541697	         -0.31363780	          0.57848642	          0.04826198	         -0.40388796	          0.99677937	          1.54722292	         -0.50335850	          0.97660100	          1.53278426	         -0.18051130	          1.04788805	          1.49874788	         -0.30439933	          0.93084787	          1.56464462	         -0.35051175	          0.84101999	          1.47452339	         -0.14039801	          0.85930886	          1.41394399	         -0.09127017	          0.76437854	          1.37275178	         -0.06244155	          0.70871284	          1.33315892	         -0.03848289	          0.71191939	          1.29883295	         -0.12222455	          0.90738997	          1.44622010	         -0.56597658	          0.94201537	          1.37014394	         -0.58678548	          0.87470474	          1.30239256	         -0.61688363	          0.86026428	          1.23727613	         -0.63804139	          0.84134456	          1.21356319	         -0.55158377	          0.77298172	          1.24489158	         -0.02238171	          0.90959257	          1.14313187	         -0.08754969	          0.86430097	          1.11306852	         -0.04539996	          0.93645402	          1.20521825	         -0.62207948	          1.08704316	          1.25632101	         -0.52036423	          1.09948053	          1.19002140	         -0.54490656	
